<?xml version="1.0" standalone="no"?>
<!DOCTYPE svg PUBLIC "-//W3C//DTD SVG 20010904//EN"
 "http://www.w3.org/TR/2001/REC-SVG-20010904/DTD/svg10.dtd">
<svg version="1.0" xmlns="http://www.w3.org/2000/svg"
 width="38.000000pt" height="38.000000pt" viewBox="0 0 493.000000 481.000000"
 preserveAspectRatio="xMidYMid meet">
<metadata>
Created by Andreas Lennartz 
</metadata>
<g transform="translate(0.000000,481.000000) scale(0.100000,-0.100000)"
fill="#dddddd" stroke="none">
<path d="M2350 4641 c0 -14 -5 -18 -19 -14 -16 4 -18 -1 -16 -37 2 -34 -1 -44
-16 -47 -12 -3 -19 -14 -19 -28 0 -19 -7 -24 -45 -29 -25 -4 -45 -13 -46 -19
-1 -21 -55 -56 -106 -70 -27 -6 -57 -20 -67 -30 -21 -21 -26 -21 -62 -2 -48
25 -64 20 -64 -19 0 -19 -6 -37 -12 -40 -7 -3 -2 -3 12 1 22 5 23 4 11 -10
-15 -19 -61 -13 -74 10 -12 21 -29 16 -69 -21 -20 -18 -52 -36 -71 -40 -35 -7
-53 -28 -40 -49 3 -7 2 -9 -2 -4 -5 4 -17 0 -27 -10 -10 -9 -18 -12 -18 -8 0
4 -10 0 -21 -11 -14 -12 -23 -15 -26 -8 -4 12 -53 7 -53 -6 0 -7 -21 -16 -57
-25 -15 -4 -76 -46 -84 -58 -4 -5 -11 -7 -17 -3 -5 3 -12 -6 -15 -21 -4 -22
-3 -25 6 -13 17 21 63 50 81 50 8 0 17 8 20 18 5 15 16 17 61 15 30 -1 55 2
55 7 0 6 11 10 25 10 14 0 28 7 31 15 4 8 12 15 20 15 8 0 14 4 14 10 0 5 3 9
8 8 11 -2 92 36 92 44 0 3 -8 9 -17 11 -10 3 -1 5 21 6 24 1 45 8 55 20 14 16
18 16 29 5 7 -8 9 -14 5 -14 -5 0 -16 -18 -26 -40 -10 -24 -24 -40 -34 -41
-11 0 -13 -3 -5 -6 17 -7 15 -23 -3 -23 -8 0 -15 -4 -15 -9 0 -5 -6 -11 -12
-14 -7 -2 -3 -2 10 0 32 5 65 35 49 45 -8 5 -4 8 11 8 21 0 56 30 58 50 1 6 2
12 3 14 0 2 16 0 35 -4 34 -7 35 -7 48 37 7 25 20 48 28 50 8 2 23 9 32 14 14
7 16 5 11 -9 -6 -16 -5 -16 14 1 11 9 23 14 27 10 4 -4 9 3 13 16 4 18 11 21
29 17 12 -3 26 -2 29 4 3 5 15 10 26 10 10 0 19 6 19 14 0 8 9 18 20 21 11 3
20 12 20 20 0 9 7 11 21 8 14 -4 27 0 35 12 15 20 44 14 44 -10 0 -9 9 -15 21
-15 15 0 19 -5 15 -15 -11 -28 19 -15 39 18 24 40 27 89 5 85 -8 -2 -14 -8
-13 -13 1 -6 -8 -20 -20 -33 l-21 -23 -8 21 c-13 36 50 84 90 69 12 -5 28 -6
36 -3 17 6 28 -40 13 -55 -7 -7 -3 -9 13 -6 15 3 32 -3 46 -16 15 -14 29 -19
43 -14 12 3 21 2 21 -3 0 -14 58 -20 70 -8 8 8 14 6 20 -4 12 -19 12 -30 0
-30 -5 0 -6 -7 -3 -17 4 -11 3 -14 -5 -9 -15 9 -15 -3 1 -37 6 -15 18 -27 25
-27 6 0 12 -4 12 -10 0 -5 7 -10 15 -10 10 0 15 9 14 28 0 15 -3 21 -6 14 -4
-10 -9 -7 -20 8 -8 12 -12 24 -9 27 3 3 8 -1 11 -9 4 -10 15 -13 32 -10 21 4
25 2 20 -12 -4 -9 -2 -16 3 -16 6 0 10 6 10 13 0 9 3 8 9 -2 7 -11 11 -9 20 8
10 17 9 22 -4 27 -8 3 -15 10 -15 15 0 5 12 4 26 -1 14 -6 39 -10 55 -10 16 0
29 -4 29 -10 0 -5 -9 -10 -21 -10 -11 0 -17 -4 -14 -10 9 -14 21 -12 39 5 8 8
21 12 30 9 14 -5 14 -8 -1 -30 -11 -17 -12 -28 -5 -37 7 -8 6 -16 -3 -24 -16
-15 -29 -1 -30 31 0 10 -8 20 -17 22 -15 2 -17 -3 -12 -24 4 -15 8 -29 10 -31
2 -2 -3 -10 -11 -18 -12 -12 -18 -12 -40 3 -25 16 -32 11 -16 -14 4 -7 14 -12
21 -10 7 2 15 -3 18 -11 3 -8 0 -11 -7 -7 -6 4 -11 3 -11 -3 0 -6 -7 -8 -15
-5 -8 4 -15 1 -15 -6 0 -6 4 -9 9 -5 5 3 12 1 16 -5 9 -15 47 8 39 23 -4 7 1
4 11 -5 17 -16 19 -16 31 0 8 11 13 12 14 5 0 -7 7 -13 15 -13 8 0 12 6 9 14
-3 8 -1 17 5 21 6 3 9 16 5 29 -4 17 1 25 21 34 14 7 28 19 31 27 13 33 22 12
19 -42 -2 -32 -2 -48 1 -36 5 19 9 21 25 13 13 -7 19 -7 19 0 0 5 -7 10 -15
10 -8 0 -15 5 -15 11 0 6 7 9 15 5 10 -3 15 1 15 12 1 15 2 15 15 -2 14 -19
16 -19 28 -3 18 26 93 7 83 -20 -4 -9 -1 -13 6 -10 22 7 66 -21 71 -45 4 -23
4 -23 6 -1 1 16 8 23 29 25 19 2 26 8 24 20 -2 12 2 16 12 12 11 -4 13 -12 6
-29 -11 -28 8 -47 21 -22 7 12 17 13 45 7 20 -5 40 -14 44 -20 5 -8 10 -9 14
-2 8 13 29 10 49 -6 8 -7 22 -10 31 -6 22 9 45 -13 39 -37 -4 -15 -2 -18 13
-12 13 5 16 3 11 -9 -4 -11 2 -18 18 -22 31 -8 55 2 55 23 -1 14 -2 14 -15 -3
-11 -15 -16 -16 -28 -5 -19 18 -10 52 12 44 9 -4 27 -11 41 -15 14 -4 41 -16
60 -27 19 -11 42 -18 50 -16 11 3 10 0 -3 -11 -18 -14 -18 -15 1 -34 18 -18
23 -19 39 -7 21 16 37 19 29 6 -4 -5 4 -7 16 -3 16 4 19 2 13 -8 -6 -9 -4 -11
4 -5 8 4 25 -1 42 -14 15 -11 35 -21 44 -21 8 0 15 -4 15 -8 0 -4 18 -19 40
-32 22 -14 40 -28 40 -32 0 -5 7 -8 15 -8 8 0 15 -6 15 -14 0 -8 5 -16 11 -18
7 -2 4 -10 -7 -18 -11 -9 -15 -10 -10 -2 12 20 -23 27 -42 8 -10 -10 -12 -16
-4 -16 7 0 12 -5 12 -11 0 -6 -10 -9 -23 -7 -25 3 -87 -20 -87 -33 0 -4 -9
-10 -19 -14 -12 -4 -18 -12 -14 -21 3 -8 -1 -14 -11 -14 -9 0 -16 -6 -16 -12
0 -7 -10 -14 -22 -14 -28 -2 -90 -26 -100 -38 -3 -5 -4 -15 -1 -23 4 -9 -4
-13 -25 -13 -17 0 -34 -5 -37 -10 -4 -6 -10 -8 -15 -5 -4 3 -13 -2 -20 -10
-11 -13 -10 -14 3 -10 8 4 18 2 21 -3 3 -5 -5 -12 -19 -14 -14 -3 -25 -2 -25
1 0 4 -9 7 -20 7 -11 0 -20 -6 -20 -12 0 -7 -10 -14 -22 -16 -13 -2 -22 -9
-20 -17 1 -7 -5 -19 -15 -26 -15 -11 -21 -11 -36 3 -13 12 -18 13 -15 3 3 -14
-48 -34 -64 -25 -4 3 -7 -10 -7 -28 1 -18 3 -25 6 -15 6 21 20 23 20 2 0 -15
-40 -32 -64 -27 -7 2 -13 -2 -13 -9 0 -15 -30 -38 -49 -39 -11 0 -9 4 5 15 18
13 18 14 1 15 -21 0 -90 -44 -81 -53 8 -8 -14 -47 -27 -47 -6 0 -8 4 -5 9 6
10 -33 23 -46 15 -4 -3 -8 -12 -8 -20 0 -8 -5 -12 -10 -9 -6 3 -13 -1 -16 -10
-4 -9 -13 -14 -22 -10 -19 7 -91 -26 -92 -42 0 -7 -5 -13 -11 -13 -6 0 -8 7
-5 17 6 16 6 16 -12 0 -10 -9 -24 -17 -30 -17 -7 0 -12 -7 -12 -16 0 -18 -60
-75 -71 -68 -9 5 -70 -52 -63 -59 3 -3 -1 -4 -8 -3 -7 0 -15 -3 -17 -9 -8 -18
-26 -33 -33 -29 -10 6 -48 -28 -42 -38 3 -4 -2 -8 -10 -8 -9 0 -16 4 -16 8 0
5 -10 8 -22 7 -13 -2 -22 -7 -21 -13 2 -7 -4 -9 -14 -5 -13 5 -15 2 -8 -23 4
-16 7 -41 6 -56 -2 -32 -1 -32 34 -16 25 11 29 18 25 52 -1 11 3 16 12 13 7
-2 12 -9 11 -15 -3 -11 10 -10 47 5 14 6 24 14 23 19 -1 5 4 8 11 6 7 -1 22 7
34 18 12 11 24 20 28 20 4 0 16 9 28 21 12 11 37 31 56 43 19 13 34 28 32 35
-1 7 2 10 7 7 5 -4 22 4 38 17 15 13 35 27 43 31 8 3 4 4 -10 2 -24 -5 -25 -5
-5 11 14 10 16 17 8 20 -18 7 -16 23 2 23 8 0 15 -5 15 -12 0 -6 9 -3 20 7 11
10 22 16 25 13 3 -3 -1 -11 -10 -18 -23 -19 -18 -31 10 -18 13 6 22 15 19 19
-5 8 10 13 30 10 4 -1 13 2 20 7 6 5 22 9 35 10 14 0 37 10 52 21 20 15 29 17
32 8 4 -9 6 -9 6 1 1 6 7 12 15 12 7 0 25 11 40 25 15 14 32 25 38 25 5 0 8 7
4 15 -3 9 0 15 9 15 8 0 15 -4 15 -10 0 -5 16 1 35 13 23 15 34 28 31 40 -2
10 2 17 10 17 8 0 14 5 14 11 0 6 7 9 15 5 9 -3 15 0 15 9 0 10 10 15 30 15
17 0 30 5 30 11 0 6 9 9 20 6 11 -3 17 -1 14 4 -3 5 -2 18 1 30 9 27 61 23 59
-4 -2 -14 1 -15 12 -6 8 6 14 17 13 23 -3 26 2 36 17 36 14 0 14 -3 4 -16 -12
-13 -10 -14 16 -3 16 7 34 16 39 20 6 3 23 9 38 13 19 4 27 12 24 21 -3 7 1
16 9 19 22 8 36 7 30 -2 -3 -5 8 -6 25 -4 16 2 34 13 40 23 5 11 16 19 24 19
8 0 15 4 15 9 0 5 12 11 28 13 19 2 26 8 24 21 -2 14 2 16 22 11 17 -4 26 -2
26 6 0 6 -4 9 -9 5 -12 -7 -24 12 -16 25 4 6 13 5 25 -2 15 -10 22 -9 37 4 10
8 30 18 46 22 15 3 27 11 27 16 0 18 86 11 109 -9 11 -10 39 -21 61 -25 22 -3
49 -15 60 -26 11 -11 20 -15 20 -10 0 6 5 10 11 10 6 0 9 -7 5 -15 -3 -8 -2
-15 2 -15 20 0 112 -107 141 -164 30 -60 56 -188 43 -210 -13 -23 -12 -74 3
-80 19 -7 20 -26 1 -26 -8 0 -21 -6 -28 -12 -7 -7 -29 -22 -48 -32 -42 -24
-60 -41 -60 -56 0 -6 -4 -8 -10 -5 -5 3 -10 -2 -10 -12 0 -12 -8 -19 -20 -20
-11 -1 -20 2 -20 8 0 15 -30 10 -36 -5 -3 -8 -11 -13 -19 -10 -7 3 -15 -4 -18
-15 -3 -13 -13 -21 -27 -21 -14 0 -20 -5 -18 -17 3 -17 -1 -19 -38 -22 -8 0
-13 -5 -10 -10 6 -9 -22 -26 -36 -23 -5 1 -8 -2 -8 -7 0 -10 -59 -35 -77 -32
-7 1 -13 -3 -13 -9 0 -5 -9 -10 -20 -10 -12 0 -31 -11 -44 -25 -13 -14 -29
-25 -35 -25 -17 0 -205 -91 -209 -101 -2 -5 -12 -9 -22 -9 -9 0 -23 -7 -30
-15 -7 -8 -19 -15 -27 -15 -13 0 -46 -15 -123 -57 -48 -26 -160 -105 -160
-114 0 -4 -9 -9 -20 -12 -11 -3 -24 -15 -28 -27 -4 -12 -11 -21 -15 -21 -19 2
-21 0 -7 -10 13 -9 13 -10 0 -8 -35 4 -61 -14 -166 -109 -51 -47 -80 -71 -131
-107 -15 -11 -54 -46 -86 -77 -31 -32 -63 -57 -69 -55 -24 4 -36 21 -26 34 7
9 7 13 -1 13 -7 0 -9 4 -6 10 3 6 2 10 -4 10 -5 0 -13 9 -16 20 -3 11 -13 20
-21 20 -8 0 -14 7 -14 16 0 8 5 12 11 8 18 -11 -6 29 -37 59 -14 15 -31 27
-35 27 -5 0 -9 9 -9 20 0 18 -10 24 -32 21 -3 0 -9 13 -13 30 -7 33 -47 65
-66 53 -8 -4 -9 -3 -5 4 8 13 -52 54 -70 48 -5 -2 -19 9 -30 25 -12 19 -25 27
-36 23 -9 -2 -19 0 -23 6 -3 6 -11 8 -16 5 -5 -4 -9 -2 -9 4 0 5 -9 13 -20 16
-25 8 -25 16 0 43 11 12 20 25 20 31 0 5 6 12 13 14 9 4 8 8 -3 16 -13 9 -13
11 3 11 9 0 17 6 17 14 0 8 7 16 15 20 8 3 15 13 15 21 0 9 4 14 9 11 5 -4 7
3 4 15 -3 11 -11 18 -19 15 -16 -6 -31 13 -18 23 5 3 14 15 20 26 6 11 17 20
25 20 8 1 12 7 10 15 -3 14 -8 42 -10 63 -1 5 -15 6 -32 2 -22 -5 -29 -4 -25
4 4 6 3 11 -3 11 -14 0 -29 -32 -24 -48 8 -21 -15 -39 -44 -36 -15 1 -36 -2
-47 -9 -12 -6 -32 -11 -46 -11 -15 -1 -25 -7 -25 -16 0 -8 -8 -18 -17 -22 -26
-11 -8 -53 23 -54 13 0 32 -4 41 -8 9 -4 22 -5 27 -1 7 3 8 0 5 -9 -8 -20 -94
-22 -125 -3 -17 9 -23 9 -26 0 -6 -16 -32 6 -27 22 4 13 -74 67 -87 60 -5 -4
-15 0 -22 7 -18 18 -28 48 -17 48 19 0 10 17 -15 28 -32 15 -38 15 -29 0 4 -7
3 -8 -4 -4 -7 4 -12 14 -12 22 0 8 -6 14 -13 14 -7 0 -18 9 -25 20 -7 12 -17
18 -21 15 -11 -6 -43 40 -34 49 10 10 61 7 68 -5 5 -7 15 -2 28 12 l20 22 8
-22 c7 -17 16 -21 46 -20 l38 1 -32 9 c-22 7 -31 14 -27 24 7 18 44 20 44 3 0
-7 10 -2 23 10 22 23 22 23 3 38 -17 12 -40 16 -73 13 -5 0 -7 -7 -5 -14 4
-19 -47 -32 -58 -15 -5 8 -17 10 -34 6 -17 -4 -35 -1 -50 9 -15 10 -33 14 -49
10 -27 -7 -30 -6 -100 58 -23 20 -47 37 -54 37 -6 0 -19 8 -29 17 -9 9 -32 17
-50 17 -36 0 -39 3 -25 25 5 8 19 12 35 9 18 -4 26 -1 26 8 0 20 -34 17 -75
-6 -24 -13 -35 -16 -35 -7 -1 26 -37 56 -60 50 -15 -4 -21 -2 -17 4 4 6 -2 13
-13 16 -11 3 -20 13 -20 22 0 14 -3 15 -15 5 -12 -10 -15 -10 -15 3 0 20 15
29 60 37 33 5 35 7 33 43 -1 21 2 35 8 32 5 -4 9 -1 9 6 0 7 -8 9 -21 6 -25
-7 -51 2 -43 14 3 5 2 9 -3 8 -22 -4 -31 3 -28 21 4 22 -10 28 -18 8 -4 -10
-8 -9 -16 2 -9 12 -11 13 -11 1 0 -8 7 -22 15 -31 14 -15 12 -16 -15 -12 -17
2 -30 10 -30 16 0 16 21 42 40 49 12 4 12 6 -1 6 -17 1 -33 27 -25 40 3 4 -8
5 -25 3 -16 -2 -29 0 -29 6 0 14 -66 46 -78 38 -5 -3 -12 -15 -15 -26 -4 -15
0 -20 13 -20 11 0 22 5 25 10 7 12 25 4 25 -11 0 -5 -7 -9 -15 -9 -8 0 -15 -9
-15 -20 0 -11 5 -20 11 -20 6 0 9 -7 5 -15 -7 -19 11 -68 23 -61 5 3 11 -6 14
-20 3 -16 0 -23 -7 -21 -6 2 -18 1 -27 -4 -13 -6 -16 -4 -15 9 0 9 -4 16 -11
15 -8 -2 -11 13 -10 47 1 36 -2 50 -12 50 -8 0 -11 -6 -7 -15 4 -11 -2 -15
-21 -15 -14 0 -23 3 -20 7 4 3 2 12 -4 19 -7 8 -7 14 1 19 7 4 2 15 -15 30
-14 13 -25 29 -25 35 0 6 -11 3 -24 -7 -13 -10 -21 -24 -18 -32 3 -9 1 -12 -7
-7 -6 4 -10 15 -9 24 2 11 -3 16 -14 16 -10 -1 -18 2 -18 7 0 5 -6 8 -12 6 -7
-1 -12 4 -11 11 2 6 -5 12 -15 13 -37 2 -77 11 -88 20 -7 5 -17 8 -24 7 -7 -2
-14 2 -17 9 -2 6 29 31 69 54 40 24 75 46 78 49 11 11 99 70 105 70 4 0 23 14
42 30 18 17 39 30 45 30 9 0 9 3 0 12 -10 10 -15 10 -22 -2 -5 -8 -13 -11 -17
-6 -4 5 -2 11 5 13 23 8 13 30 -11 26 -25 -5 -57 -50 -50 -70 3 -7 0 -13 -7
-13 -6 0 -9 -4 -5 -9 3 -5 -4 -12 -15 -16 -11 -3 -20 -11 -20 -16 0 -12 -37
-12 -45 1 -9 15 -25 12 -25 -4 0 -8 -14 -17 -30 -21 -17 -4 -30 -11 -30 -16 0
-6 -4 -8 -9 -5 -5 3 -14 -1 -21 -9 -7 -8 -20 -15 -30 -15 -9 0 -25 -9 -35 -20
-13 -15 -31 -20 -66 -20 -57 0 -79 -7 -79 -26 0 -8 -12 -19 -27 -25 -28 -11
-63 -42 -63 -56 0 -8 -29 -26 -62 -39 -10 -3 -18 -10 -18 -15 0 -5 -7 -9 -15
-9 -9 0 -18 -7 -21 -15 -4 -8 -10 -15 -15 -15 -5 0 -33 -25 -63 -55 -29 -30
-58 -55 -64 -55 -5 0 -8 -8 -6 -17 5 -18 -42 -53 -71 -53 -7 0 -18 -7 -25 -15
-10 -12 -10 -15 0 -15 8 0 4 -12 -9 -32 -11 -18 -25 -32 -31 -31 -5 2 -17 -13
-26 -32 -9 -19 -29 -46 -44 -58 -15 -13 -30 -35 -34 -50 -3 -15 -11 -27 -16
-27 -6 0 -10 -14 -10 -30 0 -34 -16 -68 -41 -87 -10 -8 -19 -32 -21 -60 -6
-65 25 -110 82 -119 22 -4 40 -10 40 -14 0 -4 16 -11 35 -14 19 -4 35 -11 35
-16 0 -6 7 -10 15 -10 8 0 15 -4 15 -10 0 -5 8 -10 18 -10 10 0 44 -18 76 -40
31 -22 61 -40 65 -40 5 0 14 -7 21 -15 7 -8 22 -15 34 -15 28 0 66 -35 66 -60
0 -11 9 -29 20 -40 19 -19 22 -19 36 -5 17 17 64 21 64 5 0 -5 7 -10 16 -10
14 0 16 -7 9 -47 -4 -27 -9 -61 -10 -78 -1 -16 -3 -34 -5 -40 -1 -5 -2 -17 -1
-27 1 -9 -3 -19 -9 -23 -15 -9 -12 -45 5 -51 18 -7 20 -35 4 -51 -12 -12 -19
-123 -8 -123 5 0 3 -14 -3 -30 -7 -22 -7 -34 1 -44 8 -10 9 -16 1 -21 -22 -13
-10 -32 18 -28 18 3 23 2 14 -5 -7 -5 -12 -15 -10 -22 2 -7 -3 -15 -10 -17 -8
-3 -10 1 -6 11 3 9 1 16 -5 16 -15 0 -14 -23 1 -38 9 -9 9 -12 0 -12 -7 0 -12
-9 -12 -20 0 -13 5 -18 15 -14 19 8 19 0 -1 -20 -14 -15 -14 -16 0 -16 19 0
20 -18 6 -56 -6 -15 -12 -47 -15 -73 -4 -42 -3 -44 10 -27 14 18 15 18 21 2 4
-11 2 -21 -6 -26 -7 -5 -12 -26 -12 -54 1 -25 -3 -48 -8 -51 -5 -3 -4 -18 2
-35 5 -17 7 -37 4 -45 -4 -11 1 -15 18 -15 29 0 37 -8 27 -29 -51 -102 -49
-83 -26 -278 6 -51 6 -53 -18 -53 -13 0 -26 -3 -30 -6 -9 -10 4 -34 19 -34 7
0 17 -12 20 -26 7 -28 37 -64 53 -64 5 0 12 -8 15 -17 6 -15 8 -15 17 -3 7 13
10 13 18 1 5 -7 14 -11 20 -7 12 8 56 -13 86 -41 27 -24 85 -56 85 -47 0 4 8
0 18 -8 9 -9 27 -19 39 -22 11 -4 27 -13 33 -21 7 -8 21 -15 31 -15 10 0 35
-11 55 -25 20 -14 42 -25 48 -25 6 0 18 -9 26 -20 8 -10 27 -22 42 -25 15 -4
28 -11 28 -16 0 -6 14 -15 30 -20 17 -6 30 -15 30 -19 0 -11 96 -60 117 -60
10 0 33 -10 52 -23 19 -12 43 -27 53 -33 10 -6 26 -18 36 -27 9 -9 49 -31 87
-48 39 -18 76 -39 83 -46 7 -7 18 -13 24 -13 6 0 44 -16 85 -35 41 -19 79 -35
86 -35 7 0 29 -9 50 -20 20 -11 44 -20 52 -20 9 0 37 -11 63 -25 26 -14 59
-25 74 -25 16 0 28 -4 28 -8 0 -5 19 -18 43 -28 23 -10 52 -31 64 -45 32 -37
70 -45 97 -20 11 11 38 22 59 26 20 4 37 11 37 15 0 5 25 23 55 40 30 17 55
38 55 45 0 7 16 19 35 25 19 6 35 16 35 21 0 5 7 9 15 9 8 0 15 5 15 10 0 6 7
10 15 10 8 0 15 4 15 8 0 5 12 15 28 23 15 7 40 26 56 41 17 16 35 28 41 28 6
0 28 12 50 27 47 32 131 73 150 73 8 0 21 10 29 22 9 12 16 19 16 15 0 -12 81
33 114 64 17 16 36 29 43 29 6 0 18 6 25 13 7 7 33 19 58 26 70 21 108 40 119
59 6 10 11 12 11 5 0 -15 30 -18 30 -3 0 6 6 10 14 10 7 0 19 7 26 15 7 8 23
15 37 15 13 0 26 6 29 14 3 8 18 16 34 20 21 4 34 15 45 38 8 18 13 26 11 17
-4 -15 -2 -15 27 -1 18 9 43 26 57 39 14 13 31 23 38 23 7 0 30 11 50 25 20
14 42 25 50 25 7 0 17 11 22 25 5 14 14 25 19 25 5 0 11 10 14 22 6 21 7 21
24 5 17 -15 21 -15 47 2 15 10 33 29 40 42 7 14 19 23 29 21 10 -2 20 4 23 12
3 8 19 17 35 20 16 3 43 9 60 12 16 3 28 11 26 17 -2 8 22 18 62 27 44 10 66
20 66 30 0 14 39 40 63 40 6 0 12 -4 12 -10 0 -5 9 -10 20 -10 11 0 23 -7 27
-16 3 -9 13 -14 24 -11 11 3 19 1 19 -4 0 -5 9 -9 20 -9 11 0 20 7 20 15 0 8
5 15 11 15 6 0 9 6 6 13 -2 6 -11 11 -21 9 -21 -4 -21 26 1 50 9 10 12 18 7
18 -12 0 -5 78 7 86 12 7 12 74 0 74 -5 0 -12 11 -15 25 -6 23 -8 24 -22 10
-19 -18 -34 -11 -34 16 0 14 7 19 25 19 14 0 25 5 25 12 0 6 8 20 18 31 16 19
16 19 -4 13 -19 -6 -21 -2 -23 49 -1 48 2 59 21 76 13 11 19 19 13 18 -25 -3
-35 2 -35 19 0 10 -5 23 -12 30 -9 9 -5 12 20 12 18 0 32 5 32 10 0 6 -8 10
-19 10 -31 0 -43 23 -28 53 11 20 17 23 25 15 13 -13 14 2 16 149 1 51 -3 73
-11 73 -7 0 -10 7 -7 15 4 11 2 13 -9 10 -8 -4 -17 1 -21 11 -4 12 -2 15 9 10
10 -3 15 1 15 14 0 10 4 21 10 25 5 3 7 12 4 20 -9 22 -24 8 -24 -21 0 -16 -4
-23 -11 -18 -7 4 -20 -4 -30 -17 -15 -20 -19 -21 -19 -6 0 9 -4 17 -10 17 -18
0 -10 29 11 41 17 9 20 17 16 45 -3 18 -2 36 2 39 5 2 11 13 14 24 3 14 1 18
-9 14 -20 -7 -28 24 -17 62 6 18 7 39 3 46 -4 8 -5 31 -3 52 4 27 10 37 22 37
28 0 32 12 10 28 -13 9 -19 21 -16 33 3 10 0 20 -7 23 -6 2 -5 5 4 5 17 1 46
41 30 41 -5 0 -10 6 -10 14 0 8 -12 16 -27 18 -14 2 -29 9 -31 17 -3 10 1 12
17 8 16 -4 21 -2 17 8 -2 7 3 16 12 20 10 4 13 9 6 13 -19 12 -26 74 -10 91
18 21 30 88 16 96 -15 10 -13 75 3 75 18 0 49 34 40 43 -3 4 1 7 10 7 21 0 60
37 45 42 -6 2 -2 20 11 46 12 23 17 42 13 42 -5 0 -9 18 -9 40 0 37 1 39 21
28 20 -11 20 -10 4 9 -20 21 -24 53 -8 53 15 0 12 57 -4 72 -7 8 -17 29 -21
47 -7 31 -45 83 -45 61 0 -5 -7 -10 -16 -10 -8 0 -12 5 -9 10 3 6 1 10 -4 10
-15 0 -14 27 2 34 10 5 10 7 0 12 -7 3 -13 11 -13 18 0 6 -12 25 -27 42 -16
17 -33 40 -39 50 -7 11 -20 18 -31 17 -12 -1 -23 8 -31 25 -8 19 -34 39 -77
61 -35 18 -69 39 -75 47 -6 7 -36 16 -67 20 -64 8 -101 24 -95 42 3 9 -14 12
-58 12 -60 0 -64 1 -104 43 -23 24 -53 47 -66 50 -14 4 -38 18 -54 32 -16 14
-34 25 -41 25 -7 0 -25 11 -40 24 -16 14 -52 30 -79 37 -28 7 -63 20 -79 29
-16 10 -37 15 -48 13 -14 -4 -18 -1 -13 10 3 9 -1 17 -13 21 -43 13 -161 29
-201 27 -27 -1 -48 4 -58 14 -10 10 -34 15 -69 15 -29 0 -55 4 -57 10 -1 5
-20 10 -41 12 -24 1 -42 9 -47 19 -10 18 -47 28 -129 33 -29 2 -56 7 -60 12
-8 12 -28 16 -73 16 -21 1 -38 4 -38 7 0 12 -65 31 -102 31 -20 0 -41 7 -48
15 -7 8 -23 15 -36 15 -33 0 -94 30 -126 63 -15 15 -38 27 -52 27 -29 0 -96
30 -96 42 0 10 -62 38 -85 38 -8 0 -15 -9 -15 -19z m-1462 -1004 c15 9 30 9
56 2 20 -6 41 -7 46 -4 6 4 9 1 8 -7 -2 -7 6 -13 16 -13 11 0 21 -6 24 -13 2
-6 19 -12 37 -12 39 0 51 -12 30 -30 -8 -7 -15 -15 -15 -19 0 -10 64 -36 82
-33 11 2 22 -7 30 -22 8 -18 19 -26 37 -26 18 0 22 3 13 9 -11 7 -10 9 3 14 9
4 13 3 10 -2 -3 -5 -1 -12 4 -15 5 -3 7 -15 4 -26 -5 -17 0 -20 26 -20 17 0
31 -4 31 -8 0 -18 59 -73 80 -75 18 -1 52 -37 35 -37 -4 0 1 -7 10 -16 15 -15
17 -15 31 2 14 18 15 17 10 -13 -4 -26 -1 -35 15 -44 12 -6 29 -9 40 -6 20 6
41 -14 37 -34 -2 -10 6 -13 27 -12 27 2 28 2 8 -7 -34 -14 -28 -20 17 -17 22
1 40 5 40 10 0 18 16 5 17 -15 1 -11 8 -25 15 -29 7 -5 9 -9 3 -9 -5 0 -3 -4
5 -10 9 -5 19 -5 26 1 8 6 14 4 18 -7 4 -11 14 -15 31 -12 17 4 25 1 25 -8 0
-8 7 -14 15 -14 8 0 15 -7 15 -15 0 -10 10 -15 30 -15 17 0 30 -5 30 -11 0 -6
7 -8 16 -5 14 5 15 4 5 -8 -11 -13 -8 -16 14 -22 15 -4 31 -2 38 5 14 14 37
14 37 1 0 -5 -7 -10 -15 -10 -18 0 -20 -16 -3 -26 6 -4 14 -2 16 4 8 24 24 12
18 -13 -4 -16 -2 -25 5 -25 6 0 9 -7 5 -15 -3 -9 0 -15 9 -15 8 0 15 -4 15 -9
0 -8 40 -27 48 -22 5 3 30 -24 26 -30 -2 -4 3 -12 10 -18 10 -9 16 -9 21 -1
11 18 36 -10 30 -34 -3 -12 -2 -16 1 -9 4 8 11 7 25 -5 67 -58 92 -89 79 -97
-6 -4 -10 -1 -10 5 0 6 -4 8 -10 5 -6 -3 -10 -21 -10 -38 0 -22 -3 -28 -9 -18
-6 9 -16 11 -27 6 -13 -5 -15 -9 -6 -12 21 -8 13 -20 -18 -26 -18 -4 -30 -13
-30 -22 0 -8 -4 -15 -10 -15 -5 0 -10 -9 -10 -20 0 -14 -6 -20 -17 -18 -11 2
-21 -7 -27 -27 -6 -16 -15 -33 -21 -37 -6 -4 -2 -8 8 -8 37 0 9 -25 -37 -34
-36 -6 -50 -14 -56 -32 -5 -13 -15 -24 -22 -24 -8 -1 -5 -7 7 -16 21 -16 20
-17 -29 -45 -15 -9 -16 -13 -5 -20 10 -6 11 -9 2 -9 -7 0 -13 -11 -13 -25 0
-19 5 -24 21 -22 12 1 24 -3 26 -9 5 -16 -52 -11 -72 6 -14 12 -18 11 -25 -1
-5 -7 -7 -24 -3 -36 3 -15 1 -23 -7 -23 -9 0 -10 -11 -5 -36 4 -26 3 -34 -5
-29 -9 5 -10 1 -5 -14 9 -28 -23 -29 -53 -1 -24 22 -48 18 -57 -11 -4 -10 -11
-19 -16 -19 -5 0 -9 -5 -9 -11 0 -8 5 -8 15 1 8 7 22 10 30 6 13 -5 14 -10 4
-27 -9 -18 -9 -21 3 -16 11 4 14 -1 11 -17 -4 -17 5 -28 38 -50 23 -16 53 -29
66 -30 14 0 21 -6 19 -13 -4 -9 1 -10 19 -1 14 6 27 19 30 28 3 10 15 20 25
23 21 5 27 31 10 42 -13 8 -13 78 -1 91 5 5 11 27 14 49 2 22 11 57 20 79 10
21 17 44 17 52 0 7 4 15 9 18 5 4 19 27 32 53 20 41 62 95 146 186 20 22 23
31 13 37 -7 4 -9 13 -5 20 6 10 11 9 20 -4 11 -14 14 -15 25 -1 21 26 37 17
44 -25 4 -28 11 -40 24 -41 10 0 12 -3 5 -6 -18 -7 -16 -58 3 -74 14 -11 14
-13 -1 -21 -23 -13 -8 -30 16 -18 22 12 23 10 7 -25 -7 -15 -17 -24 -25 -21
-7 3 -13 1 -13 -4 0 -6 7 -10 17 -10 14 0 14 -2 -2 -20 -16 -18 -16 -20 -2
-20 17 0 25 -44 9 -53 -4 -2 -1 -2 6 0 27 6 32 -9 12 -38 -12 -16 -17 -29 -11
-29 6 0 11 5 11 11 0 5 4 7 10 4 12 -7 2 -64 -15 -85 -9 -12 -9 -25 1 -60 6
-25 12 -37 13 -27 1 24 21 11 21 -13 0 -12 -5 -17 -14 -14 -9 4 -15 -4 -18
-25 -2 -16 -1 -28 4 -25 4 3 8 -2 8 -10 0 -9 8 -16 19 -16 15 0 19 -7 19 -37
0 -21 -3 -32 -5 -25 -3 6 -9 12 -14 12 -12 0 -11 -41 1 -60 6 -9 5 -19 -2 -28
-9 -11 -6 -12 15 -7 21 6 27 4 27 -9 0 -10 -8 -15 -22 -13 -19 2 -24 -4 -26
-30 -3 -35 14 -77 28 -68 4 3 6 -4 3 -15 -3 -11 -9 -20 -14 -20 -14 0 -5 -39
14 -60 9 -11 14 -26 11 -35 -4 -8 -2 -15 4 -15 6 0 8 -9 5 -20 -4 -14 0 -20
11 -20 20 0 20 -9 1 -30 -11 -12 -17 -43 -19 -101 -4 -103 4 -173 15 -144 7
19 8 19 8 -1 1 -12 8 -27 16 -34 19 -16 10 -30 -20 -30 -13 0 -27 -5 -30 -10
-3 -5 3 -10 14 -10 12 0 21 -5 21 -11 0 -6 -6 -9 -13 -6 -8 3 -18 -7 -24 -24
-6 -16 -8 -27 -3 -24 12 8 19 -58 7 -73 -13 -17 -17 -52 -5 -52 4 0 8 5 8 11
0 5 5 7 10 4 6 -3 10 -1 10 4 0 6 -8 11 -17 11 -12 0 -14 3 -7 10 13 13 67 -5
62 -21 -2 -6 -7 -10 -12 -9 -5 1 -12 -4 -17 -12 -4 -7 -16 -13 -26 -13 -12 0
-18 -8 -19 -23 -1 -14 3 -21 11 -18 8 3 11 -5 10 -22 -3 -49 -5 -53 -17 -46
-6 4 -8 3 -5 -3 3 -5 2 -26 -3 -46 -5 -24 -4 -57 5 -92 7 -30 10 -56 8 -59 -3
-3 -4 -29 -3 -58 0 -29 1 -60 1 -68 1 -8 5 -42 11 -74 10 -63 1 -81 -33 -70
-10 2 -19 -2 -23 -12 -5 -13 -9 -14 -21 -4 -8 6 -19 9 -25 5 -5 -3 -10 -1 -10
4 0 6 -7 11 -15 11 -8 0 -15 5 -15 11 0 5 -4 8 -9 5 -5 -3 -20 3 -33 14 -14
11 -28 17 -31 13 -4 -3 -12 -1 -19 4 -7 5 -35 18 -63 28 -27 10 -65 26 -84 36
-18 10 -39 15 -47 12 -8 -3 -17 2 -20 11 -3 9 -10 14 -14 11 -10 -6 -70 27
-70 38 0 4 -6 7 -12 7 -19 0 -151 68 -163 83 -9 12 -33 26 -102 61 -13 6 -23
14 -23 19 0 4 -7 7 -15 7 -19 0 -109 41 -113 52 -2 4 -13 8 -25 8 -12 0 -33
12 -46 25 -13 14 -30 25 -38 25 -8 0 -11 5 -8 10 3 6 -5 14 -20 20 -14 5 -28
16 -31 24 -3 8 -23 22 -45 30 -21 9 -39 20 -39 24 0 5 -23 15 -51 22 -27 8
-52 18 -55 22 -3 4 -15 8 -26 8 -11 0 -30 10 -42 23 -12 13 -27 22 -34 19 -7
-2 -12 1 -12 7 0 6 -7 11 -15 11 -8 0 -15 4 -15 10 0 5 -16 16 -35 24 -62 26
-75 45 -76 114 -1 34 -5 62 -10 62 -8 0 5 52 21 82 5 9 9 45 9 78 -1 34 3 66
9 72 5 5 7 22 3 37 -4 14 -4 42 -1 61 3 19 2 46 -2 59 -5 13 -4 28 1 35 14 18
6 61 -13 64 -13 3 -16 11 -12 30 14 74 18 172 6 172 -6 0 -11 12 -10 28 1 15
1 32 0 37 -4 14 -11 139 -12 203 0 28 -4 52 -8 52 -5 0 -6 17 -4 38 2 20 -1
62 -8 92 -6 30 -12 69 -13 85 -1 17 -5 38 -10 47 -14 35 37 32 87 -4 14 -10
22 -10 38 0 12 7 20 8 20 2 0 -5 -5 -10 -11 -10 -22 0 11 -27 92 -75 63 -37
83 -45 89 -34 5 7 6 17 3 22 -3 6 8 2 25 -8 17 -10 29 -22 26 -27 -3 -4 0 -8
6 -8 7 0 9 -7 6 -16 -4 -11 -2 -15 8 -11 10 4 13 1 9 -9 -3 -8 -2 -14 3 -13
17 4 64 -24 64 -38 0 -8 5 -11 10 -8 6 3 10 1 10 -5 0 -7 7 -9 16 -6 8 3 13 2
10 -3 -6 -10 49 -33 57 -24 3 3 12 1 19 -3 7 -5 15 -9 18 -10 3 0 13 -4 23 -9
11 -4 23 -3 30 4 6 6 20 11 30 11 16 0 17 -3 7 -15 -9 -10 -9 -15 -1 -15 6 0
11 -7 11 -15 0 -22 56 -19 96 6 29 18 32 22 20 35 -8 8 -22 14 -30 14 -9 0
-16 3 -16 8 0 4 -14 13 -31 21 -25 11 -33 11 -39 1 -6 -9 -11 -7 -19 9 -7 12
-16 19 -21 16 -5 -3 -11 4 -15 15 -4 13 -16 21 -33 22 -15 1 -35 2 -44 3 -9 0
-20 4 -24 8 -4 4 -18 7 -31 7 -26 0 -65 29 -57 42 10 16 -40 47 -67 41 -18 -3
-28 0 -32 11 -6 14 -3 15 16 5 22 -12 22 -12 4 9 -11 12 -27 19 -39 17 -13 -3
-28 4 -40 17 -10 11 -18 17 -18 12 0 -5 -12 4 -26 20 -21 22 -29 25 -35 14 -6
-9 -9 -8 -9 8 0 24 -32 44 -78 47 -26 2 -32 6 -28 20 4 17 1 19 -45 22 -38 3
-59 12 -59 27 -1 19 -70 60 -92 55 -11 -3 -18 0 -18 10 0 8 -4 12 -9 9 -5 -3
-14 1 -21 9 -7 8 -23 15 -36 15 -17 0 -24 6 -24 20 0 18 -3 19 -20 10 -16 -8
-24 -6 -40 10 -11 11 -25 18 -30 15 -11 -7 -52 50 -42 60 4 5 1 5 -7 0 -9 -5
-19 -1 -28 11 -13 18 -15 18 -24 2 -15 -26 -36 -22 -36 6 0 14 -13 37 -28 52
-19 19 -23 29 -14 34 6 5 9 15 6 23 -4 11 -23 14 -81 13 l-76 -1 0 32 c0 17 5
35 10 38 6 4 8 10 6 14 -3 4 8 21 25 37 22 21 28 35 24 51 -3 13 -2 23 2 22
20 -3 32 2 37 19 8 23 52 73 58 66 3 -3 8 7 12 21 5 18 13 25 31 25 19 0 23
-4 19 -17 -3 -10 5 -5 18 12 13 16 23 33 23 37 0 4 18 30 39 58 22 29 40 60
41 71 2 30 40 74 89 103 24 14 50 26 56 26 7 0 23 9 37 20 14 11 36 20 48 20
13 0 26 7 29 17 6 14 8 14 21 -3 11 -16 17 -17 33 -7z m3672 -653 c42 -17 74
-54 46 -54 -8 0 -16 6 -19 13 -2 6 -4 -2 -3 -20 1 -22 4 -29 13 -22 16 14 27
-7 28 -54 1 -32 -2 -38 -17 -34 -11 3 -18 0 -18 -9 0 -8 8 -14 18 -14 24 0 42
-19 35 -36 -3 -8 0 -14 6 -14 6 0 11 -5 11 -11 0 -5 -4 -7 -10 -4 -5 3 -10 -1
-10 -9 0 -9 -7 -16 -15 -16 -9 0 -20 -12 -25 -26 -15 -37 -13 -57 5 -50 8 3
15 1 15 -5 0 -5 -7 -12 -15 -15 -11 -4 -13 -15 -9 -37 7 -41 11 -44 28 -22 8
11 15 14 20 7 6 -11 -19 -42 -35 -42 -5 0 -9 -16 -9 -35 0 -19 5 -35 10 -35 6
0 10 5 10 12 0 6 2 9 5 6 9 -8 -6 -38 -16 -32 -5 3 -9 -4 -9 -15 0 -12 4 -21
9 -21 9 0 9 -12 -2 -40 -7 -20 -7 -44 4 -120 5 -36 11 -80 13 -98 1 -19 9 -38
17 -43 11 -7 11 -11 1 -17 -9 -6 -13 -81 -17 -303 -2 -162 -7 -302 -11 -312
-3 -9 -12 -17 -19 -17 -7 0 -23 -13 -36 -30 -18 -22 -32 -30 -56 -30 -26 0
-33 -4 -33 -20 0 -11 -4 -21 -10 -21 -19 -3 -25 -5 -49 -18 -13 -7 -21 -9 -18
-4 3 5 1 15 -4 23 -8 13 -11 13 -22 0 -15 -19 -82 -50 -107 -50 -10 0 -32 -13
-48 -30 -17 -16 -37 -30 -46 -30 -8 0 -21 -6 -28 -13 -18 -17 -71 -51 -80 -52
-5 0 -21 -12 -36 -27 -16 -15 -41 -30 -56 -34 -14 -3 -30 -12 -34 -18 -4 -7
-24 -20 -44 -29 -20 -10 -50 -28 -65 -41 -24 -20 -193 -119 -200 -117 -16 5
-44 -2 -55 -12 -25 -24 -137 -76 -131 -61 3 8 -1 14 -8 14 -19 -1 -49 -25 -49
-39 0 -6 -6 -11 -13 -11 -7 0 -23 -9 -35 -20 -12 -11 -25 -20 -30 -20 -6 0
-17 -11 -25 -24 -9 -13 -22 -23 -29 -23 -29 2 -88 -16 -88 -27 0 -15 -57 -49
-69 -41 -6 3 -21 -5 -34 -19 -13 -13 -42 -27 -66 -31 -23 -4 -49 -14 -58 -23
-9 -10 -28 -18 -41 -19 -14 -1 -37 -13 -51 -26 -14 -13 -44 -34 -66 -46 -22
-13 -45 -31 -52 -41 -7 -10 -33 -28 -58 -40 -45 -22 -47 -22 -60 -4 -8 11 -11
28 -8 39 11 31 4 410 -6 413 -6 2 -6 14 1 30 11 27 15 413 5 502 -12 103 -20
150 -26 150 -3 0 -7 30 -8 68 -3 76 -5 92 -16 109 -4 7 -6 63 -4 125 6 147 1
178 -27 179 -17 1 -17 2 -3 6 16 4 22 16 18 36 -12 68 -22 136 -22 150 0 9 -4
17 -8 17 -7 0 -9 14 -16 145 -3 39 -8 100 -13 138 -4 37 -5 72 -2 77 7 11 37
9 58 -4 7 -4 19 -5 27 -2 8 3 15 2 15 -3 0 -11 46 -31 71 -31 15 0 19 -5 14
-19 -4 -14 3 -22 32 -36 36 -17 115 -85 98 -85 -4 0 3 -9 17 -20 14 -10 33
-41 43 -67 10 -26 27 -54 37 -61 10 -7 16 -18 12 -24 -6 -10 25 -80 39 -86 4
-2 7 -10 7 -17 0 -8 7 -18 16 -23 8 -5 17 -22 19 -37 3 -30 51 -78 68 -68 5 3
13 0 17 -8 16 -26 85 24 116 84 8 15 18 27 22 27 12 0 42 56 42 77 0 12 15 24
45 36 25 11 45 24 45 29 0 6 -6 5 -15 -2 -25 -20 -17 5 9 29 14 14 26 18 30
12 7 -10 58 19 91 52 9 9 23 20 31 25 8 5 16 16 18 26 3 21 24 36 41 30 13 -6
55 28 55 45 0 7 7 11 14 9 8 -2 26 12 40 31 15 19 26 32 26 27 0 -4 11 5 24
19 14 15 29 24 34 21 5 -3 26 10 47 29 22 19 42 32 47 29 11 -7 39 22 30 31
-4 5 1 5 12 1 10 -3 26 -1 34 6 12 10 14 10 8 1 -4 -8 -1 -13 8 -13 9 0 16 7
16 15 0 8 7 15 16 15 11 0 14 6 9 20 -5 16 -2 20 14 20 25 0 60 19 78 40 10
13 11 13 10 0 -2 -8 -6 -21 -11 -28 -7 -11 -4 -11 12 -1 12 7 19 17 16 21 -3
4 2 5 11 2 11 -5 17 2 21 25 4 17 11 28 16 25 17 -10 88 7 88 22 0 8 10 14 23
15 12 0 16 3 10 6 -7 2 -13 9 -13 15 0 6 7 8 15 4 18 -7 45 3 45 16 0 5 -5 6
-12 2 -7 -4 -8 -3 -4 4 10 16 56 15 56 0 0 -7 7 -4 16 7 8 11 23 19 33 17 12
-2 20 5 24 19 5 19 8 20 21 9 11 -8 16 -9 16 -1 0 6 8 11 18 11 10 0 28 9 39
19 12 11 24 17 27 14 3 -4 6 -1 6 5 0 5 -6 13 -12 15 -7 3 -10 6 -6 6 4 1 26
-6 48 -15z"/>
<path d="M1105 2090 c3 -5 3 -16 -2 -22 -4 -7 -8 -22 -8 -33 0 -11 -3 -25 -7
-31 -4 -6 -9 -31 -10 -55 -2 -24 -5 -46 -9 -49 -27 -24 -34 -53 -29 -109 3
-32 2 -58 -1 -55 -4 2 -10 -24 -13 -58 -6 -70 -12 -113 -16 -113 -1 0 -4 -11
-6 -25 -6 -52 -9 -65 -19 -72 -6 -4 -2 -8 8 -8 9 0 17 7 17 15 0 8 3 15 8 15
11 0 38 -19 30 -21 -35 -6 -58 -21 -58 -35 0 -8 -4 -14 -9 -14 -5 0 -11 -11
-13 -25 -3 -14 -2 -25 1 -25 13 0 6 -55 -9 -68 -11 -10 -12 -15 -2 -18 6 -3
12 -15 12 -27 0 -30 15 -51 29 -43 6 4 11 4 10 -1 -1 -4 -1 -11 0 -15 1 -11
99 27 120 46 21 19 150 29 169 14 8 -7 12 -7 12 1 0 6 -7 14 -15 17 -14 6 -13
8 2 20 11 8 13 13 6 14 -7 0 -13 9 -13 20 0 11 -7 20 -15 20 -8 0 -15 5 -15
11 0 8 -4 8 -12 2 -7 -6 -20 -9 -28 -8 -8 2 -33 6 -54 9 -76 12 -88 17 -80 35
4 9 8 38 9 65 2 32 8 54 19 61 9 7 16 17 16 24 0 16 18 13 28 -5 15 -26 101
-22 114 6 5 12 7 11 7 -3 1 -28 34 -17 36 12 3 36 -42 82 -76 79 -15 -1 -27
-7 -26 -13 2 -12 -67 -7 -71 6 -2 5 -9 9 -16 9 -13 0 -46 35 -46 49 0 6 9 13
21 16 15 5 19 13 16 27 -4 15 -2 18 10 14 13 -5 14 -1 9 24 -4 22 -1 32 9 36
16 7 47 63 40 74 -2 4 7 18 20 30 19 17 22 26 13 31 -8 5 -5 7 10 6 17 -1 21
-6 17 -22 -3 -11 -2 -14 1 -7 3 6 21 12 40 12 25 0 33 4 28 13 -5 9 -4 9 6 0
17 -16 4 -33 -28 -34 l-27 -1 25 -7 c17 -5 30 -3 41 8 9 9 15 18 13 20 -6 7
26 32 35 26 5 -3 12 -1 16 5 11 18 27 11 22 -10 -3 -11 0 -20 5 -20 7 0 6 -5
-1 -14 -16 -20 2 -29 39 -21 31 7 42 25 15 25 -18 0 -19 11 -2 30 6 8 3 7 -9
-3 -28 -23 -35 -21 -28 8 4 17 2 25 -7 26 -32 2 -54 9 -57 18 -5 14 -42 15
-42 1 0 -5 -26 -8 -59 -7 -42 1 -57 6 -54 15 3 6 0 12 -5 12 -12 0 -65 50 -54
50 9 1 -40 29 -51 30 -5 0 -5 -4 -2 -10z"/>
<path d="M1480 1787 c1 -17 25 -47 39 -47 6 0 11 -12 11 -26 0 -14 4 -22 10
-19 5 3 22 -5 37 -19 15 -15 36 -26 45 -26 23 0 23 -6 -3 -41 -24 -34 -37 -99
-20 -99 20 0 13 -47 -9 -53 -17 -4 -19 -12 -16 -73 3 -38 1 -73 -4 -79 -14
-17 -20 -132 -9 -165 7 -18 18 -30 29 -30 10 0 25 -2 33 -5 10 -4 14 2 14 22
0 16 3 41 7 56 5 20 3 27 -9 27 -22 0 -18 16 7 34 12 9 17 16 10 16 -17 0 -15
26 5 79 13 35 14 46 4 49 -9 3 -8 10 6 26 9 11 11 15 3 9 -20 -19 -30 -16 -30
8 0 14 5 19 15 16 8 -4 17 -2 20 3 4 6 1 10 -6 10 -7 0 -2 12 12 26 16 18 20
28 12 31 -18 6 -16 48 1 63 8 6 13 17 11 23 -7 19 7 32 51 43 32 8 46 8 59 -2
15 -11 22 -8 51 19 25 24 32 37 28 54 -4 13 -10 21 -14 18 -4 -3 -13 2 -20 10
-10 12 -16 13 -27 3 -11 -9 -13 -8 -11 3 2 8 -3 12 -12 10 -46 -12 -102 -5
-125 17 -27 25 -47 29 -39 8 3 -9 -4 -15 -22 -19 -29 -5 -74 7 -74 20 0 5 -16
9 -35 10 -21 1 -35 -3 -35 -10z"/>
<path d="M1958 1732 c-2 -4 -3 -20 -2 -37 7 -106 6 -153 -4 -171 -6 -12 -9
-24 -5 -27 3 -4 1 -12 -5 -20 -6 -7 -13 -25 -16 -40 -2 -15 -7 -31 -10 -36 -4
-5 -8 -37 -11 -72 -3 -34 -9 -76 -14 -93 -44 -145 -51 -174 -51 -191 0 -30 28
-65 51 -65 10 0 28 -6 39 -12 14 -9 23 -10 28 -3 8 11 33 17 71 17 15 0 25 7
28 19 3 10 12 19 20 19 12 0 13 -3 4 -14 -10 -12 -5 -13 30 -9 37 5 41 4 36
-10 -5 -14 0 -17 29 -17 34 0 36 1 32 30 -3 20 0 31 11 35 44 17 -157 74 -218
62 -15 -3 -33 -2 -41 3 -12 7 -12 12 0 35 11 21 12 32 2 57 -10 27 -9 33 11
49 16 14 17 17 5 13 -22 -8 -24 12 -2 20 10 4 14 14 11 26 -3 11 -1 18 4 14 5
-3 9 5 9 16 0 16 -5 20 -15 16 -22 -8 -18 7 5 24 12 9 20 26 20 45 0 16 7 39
15 49 8 10 12 23 8 29 -3 5 -6 19 -7 31 -1 14 -7 20 -19 18 -9 -2 -17 1 -17 6
0 5 12 9 28 8 21 -1 27 3 25 19 -3 21 -10 56 -14 65 -1 3 -2 20 -3 39 -1 29
-6 36 -33 47 -18 8 -33 10 -35 6z"/>
<path d="M4255 2430 c-3 -5 -11 -7 -17 -4 -15 10 -28 -16 -28 -57 0 -28 -5
-38 -20 -42 -13 -3 -18 -10 -14 -21 4 -10 1 -16 -7 -16 -7 0 -10 -2 -7 -5 17
-17 -62 -149 -95 -158 -9 -3 -15 -1 -12 3 3 5 -11 14 -31 20 -21 7 -40 22 -46
36 -7 15 -17 23 -25 20 -8 -3 -11 -2 -8 4 7 11 -74 60 -99 60 -9 0 -19 -7 -23
-16 -10 -27 39 -164 59 -164 4 0 8 -8 8 -17 0 -13 2 -15 8 -5 11 16 39 6 71
-25 13 -13 32 -23 43 -23 18 0 18 1 4 16 -22 22 -20 31 9 36 33 7 36 2 19 -30
-7 -15 -11 -35 -8 -44 3 -12 0 -18 -9 -18 -22 0 -47 -34 -47 -63 0 -14 -4 -28
-9 -32 -6 -3 -17 -19 -25 -35 -9 -17 -23 -43 -31 -59 -9 -16 -17 -51 -20 -77
-2 -27 -7 -61 -11 -76 -4 -19 0 -36 16 -58 21 -29 23 -30 36 -13 7 10 14 26
14 36 0 9 5 17 11 17 7 0 9 9 5 24 -4 16 -1 26 9 30 8 3 12 11 9 19 -3 8 2 20
11 27 8 7 15 25 15 41 0 20 5 29 16 29 8 0 13 4 9 9 -3 6 4 15 16 21 15 8 19
18 15 34 -4 17 5 32 38 64 48 46 60 52 51 23 -8 -27 32 -64 62 -56 13 3 23 1
23 -5 0 -5 6 -10 14 -10 7 0 20 -8 27 -17 12 -16 12 -17 -2 -6 -9 7 -19 10
-22 6 -9 -8 12 -33 28 -33 7 0 16 -7 19 -16 5 -12 10 -14 19 -5 11 8 13 6 13
-12 -1 -17 5 -23 29 -25 19 -2 25 0 17 6 -9 6 -6 12 13 22 29 16 33 30 8 30
-14 0 -15 2 -5 9 11 7 11 9 -2 14 -9 4 -16 12 -16 19 0 28 -84 88 -122 88 -16
0 -28 5 -28 11 0 5 4 8 8 5 5 -3 9 1 9 9 0 8 -4 12 -8 9 -4 -2 -10 5 -14 16
-3 11 -14 20 -23 20 -28 0 -41 14 -48 50 -5 22 -4 31 4 27 18 -12 42 4 42 28
0 34 10 55 26 55 8 0 15 8 15 18 1 9 3 24 4 32 1 8 3 21 4 28 2 21 21 3 22
-21 1 -15 4 -10 9 12 5 19 6 40 3 48 -7 18 5 63 18 63 6 0 7 -6 4 -12 -4 -7 1
-4 10 7 14 18 14 21 -7 36 -12 9 -27 24 -34 34 -8 10 -14 12 -19 5z"/>
<path d="M3518 2073 c-14 -3 -17 -12 -13 -43 4 -29 2 -38 -7 -35 -7 3 -18 1
-23 -3 -16 -11 -65 -80 -65 -90 0 -6 -6 -12 -14 -15 -15 -6 -40 -103 -30 -118
3 -6 1 -15 -5 -22 -6 -8 -6 -18 -1 -27 5 -8 6 -26 3 -41 -6 -30 23 -129 38
-129 5 0 9 -10 9 -22 0 -14 3 -18 8 -12 9 14 27 -3 27 -26 0 -8 11 -20 25 -27
14 -7 19 -13 12 -13 -7 0 -10 -5 -7 -11 5 -7 16 -2 32 13 25 22 25 22 15 2
-10 -19 -8 -22 14 -27 17 -3 28 1 35 14 7 13 17 18 35 15 13 -3 22 -1 19 4 -3
5 -1 11 5 15 5 3 7 17 4 30 -7 27 25 65 55 65 27 0 35 16 34 72 0 26 3 48 8
48 4 0 7 27 7 60 -1 51 3 62 23 79 24 20 24 20 2 14 -23 -5 -26 0 -24 42 1 11
-15 38 -34 60 -19 22 -35 42 -35 45 0 3 -14 11 -31 19 -17 8 -44 27 -59 42
-27 29 -31 30 -62 22z m70 -145 c-2 -7 3 -12 10 -10 6 1 12 -5 12 -13 0 -9 11
-28 25 -43 22 -24 32 -68 27 -117 -3 -27 -41 -117 -57 -135 -10 -11 -23 -30
-29 -42 -14 -28 -74 -49 -98 -34 -10 6 -18 23 -18 38 0 26 -18 52 -42 61 -10
4 -11 7 0 18 14 16 17 93 2 84 -5 -3 -10 1 -10 10 0 11 -5 15 -15 11 -8 -3
-15 -1 -15 3 0 5 7 12 16 15 8 3 12 10 9 16 -3 5 1 10 9 10 9 0 16 -7 16 -15
0 -12 4 -13 18 -4 20 12 19 59 -1 59 -5 0 -3 8 6 18 10 10 17 24 17 30 0 6 6
9 14 6 8 -3 12 -12 9 -20 -9 -25 15 -15 46 19 17 17 31 35 31 40 0 4 5 7 10 7
6 0 9 -6 8 -12z"/>
<path d="M2858 1842 c-18 -12 -50 -33 -71 -47 -31 -21 -37 -31 -34 -53 2 -15
8 -27 13 -27 19 0 35 -17 30 -31 -4 -10 3 -14 24 -14 19 0 31 -6 34 -17 6 -20
18 -302 16 -379 0 -28 6 -71 14 -95 9 -24 16 -51 16 -60 0 -23 29 -45 54 -41
19 2 19 1 5 -11 -14 -11 -15 -15 -3 -31 7 -11 20 -16 29 -13 9 4 15 1 15 -8 0
-18 106 -32 131 -17 10 7 20 8 23 3 7 -11 74 19 80 36 3 7 -1 13 -10 13 -10 0
-14 7 -12 18 2 9 10 16 16 14 7 -1 12 3 12 10 0 6 7 19 15 28 21 23 28 170 8
170 -9 0 -12 7 -7 25 4 16 2 25 -6 25 -6 0 -9 4 -6 9 7 11 -22 44 -52 60 -12
7 -20 16 -17 21 3 4 -2 15 -10 23 -13 14 -13 17 0 31 8 8 15 26 15 40 0 14 4
26 9 26 9 0 19 38 27 98 4 25 1 32 -12 32 -10 0 -14 5 -10 15 6 16 -46 49 -59
37 -4 -4 -4 4 0 17 6 20 5 23 -10 17 -15 -5 -16 -4 -5 9 10 12 7 17 -16 27
-16 7 -31 15 -34 18 -3 4 -18 11 -35 17 -16 6 -39 14 -50 19 -41 15 -93 9
-127 -14z m190 -87 c-4 -16 -1 -25 8 -25 7 0 17 -7 22 -16 5 -8 15 -16 23 -17
41 -7 44 -23 14 -92 -7 -16 -15 -37 -17 -45 -3 -11 -20 -15 -59 -15 -30 0 -62
-4 -72 -9 -16 -7 -17 -5 -11 18 4 17 2 26 -6 26 -8 0 -10 9 -6 24 3 14 2 28
-4 31 -5 3 -10 15 -10 26 0 10 -5 18 -11 17 -21 -5 -21 23 0 29 12 3 21 13 21
25 0 13 5 18 13 15 8 -3 31 3 53 13 21 10 41 19 43 19 2 1 1 -10 -1 -24z m-79
-335 c6 0 11 -6 11 -14 0 -11 8 -12 40 -4 31 8 42 7 54 -4 8 -8 29 -21 48 -28
34 -14 60 -39 52 -51 -2 -4 2 -9 10 -12 7 -3 16 -24 20 -47 6 -36 3 -46 -22
-76 -16 -19 -46 -43 -67 -54 -40 -21 -105 -27 -105 -11 0 5 -13 12 -30 16 -24
5 -28 10 -21 23 4 9 7 31 6 47 -1 17 2 38 7 48 6 12 5 19 -6 23 -10 4 -12 16
-9 45 5 33 3 38 -11 33 -13 -5 -15 -1 -10 25 4 17 2 37 -5 44 -6 8 -8 17 -4
21 4 4 13 0 19 -8 6 -9 16 -16 23 -16z"/>
<path d="M1568 3889 c-41 -21 -58 -35 -58 -49 0 -11 -5 -20 -11 -20 -5 0 -7 5
-4 10 11 18 -32 10 -49 -9 -10 -11 -38 -29 -62 -40 -24 -12 -44 -26 -44 -31 0
-15 70 -4 125 21 11 5 33 13 49 19 23 8 27 15 23 36 -3 17 1 28 14 34 23 13
36 -5 19 -25 -20 -24 13 -19 64 10 25 14 51 25 59 25 19 0 42 28 32 38 -4 4
-10 1 -12 -5 -3 -7 -9 -13 -14 -13 -6 0 -7 6 -3 13 4 6 -6 -1 -23 -16 -19 -18
-36 -25 -46 -21 -20 7 -20 9 -7 35 6 10 9 18 8 18 -2 -1 -29 -14 -60 -30z"/>
</g>
</svg>
